<svg width="100" height="100" viewBox="0 0 301 151" fill="none" xmlns="http://www.w3.org/2000/svg"><path d="M.5.5h299.843v149.983H.5V.5z" fill="#fff"/><path d="M135.428 90.444v60.039h29.988V90.444h134.928V60.46H165.416V.5h-29.988v59.96H.5v29.984h134.928z" fill="#CF142B"/><path d="M175.415 49.049V.5h97.08l-97.08 48.549zm0 52.884v48.55h97.08l-97.08-48.55zm-49.987 0v48.55H28.349l97.079-48.55zm0-52.884V.5H28.349l97.079 48.549zM.501 14.442v36.051h72.087L.501 14.442zm299.842 0v36.051h-72.087l72.087-36.051zm0 122.099V100.49h-72.087l72.087 36.051zm-299.842 0V100.49h72.087L.501 136.541z" fill="#00247D"/><path d="M300.343.5h-16.654L183.9 50.493h16.654L300.5.5h-.157zm-183.4 99.987h-16.654L.5 150.48h16.654l99.946-49.993h-.157zM83.768 50.532h16.653L.5.5v8.385l83.268 41.647zm133.255 49.936h-16.654L300.29 150.5v-8.385l-83.267-41.647z" fill="#CF142B"/></svg>