<svg width="20" height="20" fill="none" xmlns="http://www.w3.org/2000/svg"><path fill-rule="evenodd" clip-rule="evenodd" d="M7.429 6.969h3.714v1.85c.535-1.064 1.907-2.02 3.968-2.02 3.951 0 4.889 2.118 4.889 6.004V20h-4v-6.312c0-2.213-.535-3.461-1.897-3.461-1.889 0-2.674 1.345-2.674 3.46V20h-4V6.969zM.57 19.83h4V6.799h-4V19.83zM5.143 2.55a2.53 2.53 0 01-.753 1.802 2.59 2.59 0 01-3.638.001A2.548 2.548 0 010 2.55C0 1.873.27 1.225.753.747a2.583 2.583 0 013.637 0c.482.478.753 1.126.753 1.803z" fill="#000"/></svg>