<svg width="60" height="60" fill="none" xmlns="http://www.w3.org/2000/svg"><path d="M50 41.602c0-.287-.026-.495-.078-.625-.052-.13-.287-.345-.703-.645-.417-.3-.944-.625-1.582-.977-.638-.351-1.257-.696-1.856-1.035a82.5 82.5 0 00-1.777-.976 65.14 65.14 0 00-1.113-.586 13.99 13.99 0 01-.743-.508 6.015 6.015 0 00-.976-.586 1.983 1.983 0 00-.82-.195c-.391 0-.866.267-1.426.8-.56.534-1.074 1.12-1.543 1.758a15.23 15.23 0 01-1.504 1.758c-.534.534-.97.8-1.309.8-.182 0-.397-.045-.644-.136a6.124 6.124 0 01-.606-.254 11.729 11.729 0 01-.664-.37 15.86 15.86 0 01-.547-.333c-2.578-1.432-4.791-3.08-6.64-4.941-1.85-1.862-3.503-4.082-4.961-6.66a15.86 15.86 0 01-.332-.547 11.46 11.46 0 01-.371-.664 6.124 6.124 0 01-.254-.606 1.909 1.909 0 01-.137-.644c0-.339.267-.775.8-1.309a15.23 15.23 0 011.759-1.504 13.323 13.323 0 001.758-1.543c.533-.56.8-1.035.8-1.426 0-.26-.065-.533-.195-.82a6.015 6.015 0 00-.586-.976 13.99 13.99 0 01-.508-.743 65.14 65.14 0 00-.586-1.113 82.5 82.5 0 00-.976-1.777c-.339-.6-.684-1.218-1.035-1.856a15.918 15.918 0 00-.977-1.582c-.3-.416-.514-.65-.645-.703-.13-.052-.338-.078-.625-.078-1.25 0-2.565.287-3.945.86-1.198.546-2.24 1.777-3.125 3.69C10.443 16.466 10 18.165 10 19.649c0 .417.033.86.098 1.329.065.468.13.865.195 1.191.065.326.182.755.352 1.289.169.534.299.918.39 1.152a135.63 135.63 0 01.918 2.461c1.563 4.271 4.382 8.444 8.457 12.52 4.076 4.075 8.249 6.894 12.52 8.457a135.63 135.63 0 012.46.918c.235.091.62.221 1.153.39.534.17.964.287 1.289.352.326.065.723.13 1.191.195.47.065.912.098 1.329.098 1.484 0 3.183-.443 5.097-1.328 1.914-.886 3.145-1.927 3.692-3.125.573-1.38.859-2.695.859-3.945zM60 11.25v37.5c0 3.099-1.1 5.749-3.3 7.95-2.201 2.2-4.851 3.3-7.95 3.3h-37.5c-3.099 0-5.749-1.1-7.95-3.3C1.1 54.498 0 51.848 0 48.75v-37.5C0 8.151 1.1 5.501 3.3 3.3 5.502 1.1 8.152 0 11.25 0h37.5c3.099 0 5.749 1.1 7.95 3.3 2.2 2.201 3.3 4.851 3.3 7.95z" fill="#000"/></svg>