<?xml version="1.0" encoding="utf-8"?><svg viewBox="0 0 492 492" xmlns="http://www.w3.org/2000/svg" xmlns:xlink="http://www.w3.org/1999/xlink"><style>:root>svg{display:none}:root>svg:target{display:block}</style><svg viewBox="0 0 16 16" id="arrow-left" xmlns="http://www.w3.org/2000/svg"><path fill-rule="evenodd" clip-rule="evenodd" d="M15 8a.5.5 0 00-.5-.5H2.707l3.147-3.146a.5.5 0 10-.708-.708l-4 4a.5.5 0 000 .708l4 4a.5.5 0 10.708-.708L2.707 8.5H14.5A.5.5 0 0015 8z"/></svg><svg viewBox="0 0 491.996 491.996" id="chevron" xmlns="http://www.w3.org/2000/svg"><path d="M484.132 124.986l-16.116-16.228c-5.072-5.068-11.82-7.86-19.032-7.86-7.208 0-13.964 2.792-19.036 7.86l-183.84 183.848L62.056 108.554c-5.064-5.068-11.82-7.856-19.028-7.856s-13.968 2.788-19.036 7.856l-16.12 16.128c-10.496 10.488-10.496 27.572 0 38.06l219.136 219.924c5.064 5.064 11.812 8.632 19.084 8.632h.084c7.212 0 13.96-3.572 19.024-8.632l218.932-219.328c5.072-5.064 7.856-12.016 7.864-19.224 0-7.212-2.792-14.068-7.864-19.128z"/></svg><svg viewBox="0 0 16 16" id="close" xmlns="http://www.w3.org/2000/svg"><path d="M9.175 8l6.075-6.075A.833.833 0 0014.075.75L8 6.825 1.925.742A.833.833 0 00.75 1.917L6.825 8 .742 14.075a.834.834 0 101.175 1.175L8 9.175l6.075 6.075a.833.833 0 001.175-1.175L9.175 8z"/></svg><svg viewBox="0 0 16 12" id="eye" xmlns="http://www.w3.org/2000/svg"><path d="M10.5 6a2.5 2.5 0 11-5 0 2.5 2.5 0 015 0z"/><path d="M0 6S3 .5 8 .5 16 6 16 6s-3 5.5-8 5.5S0 6 0 6zm8 3.5a3.5 3.5 0 100-7 3.5 3.5 0 000 7z"/></svg><svg viewBox="0 0 301 151" id="gb" xmlns="http://www.w3.org/2000/svg"><path d="M.5.5h299.843v149.983H.5V.5z"/><path d="M135.428 90.444v60.039h29.988V90.444h134.928V60.46H165.416V.5h-29.988v59.96H.5v29.984h134.928z"/><path d="M175.415 49.049V.5h97.08l-97.08 48.549zm0 52.884v48.55h97.08l-97.08-48.55zm-49.987 0v48.55H28.349l97.079-48.55zm0-52.884V.5H28.349l97.079 48.549zM.501 14.442v36.051h72.087L.501 14.442zm299.842 0v36.051h-72.087l72.087-36.051zm0 122.099V100.49h-72.087l72.087 36.051zm-299.842 0V100.49h72.087L.501 136.541zM300.343.5h-16.654L183.9 50.493h16.654L300.5.5h-.157zm-183.4 99.987h-16.654L.5 150.48h16.654l99.946-49.993h-.157zM83.768 50.532h16.653L.5.5v8.385l83.268 41.647zm133.255 49.936h-16.654L300.29 150.5v-8.385l-83.267-41.647z"/></svg><svg viewBox="0 0 20 16" id="mail" xmlns="http://www.w3.org/2000/svg"><path d="M20 4.608v8.142a3.25 3.25 0 01-3.066 3.245L16.75 16H3.25a3.25 3.25 0 01-3.245-3.066L0 12.75V4.608l9.652 5.056a.75.75 0 00.696 0L20 4.608zM3.25 0h13.5a3.25 3.25 0 013.234 2.924L10 8.154.016 2.924A3.25 3.25 0 013.064.005L3.25 0h13.5-13.5z"/></svg><svg viewBox="0 0 60 60" id="phone" xmlns="http://www.w3.org/2000/svg"><path d="M50 41.602c0-.287-.026-.495-.078-.625-.052-.13-.287-.345-.703-.645-.417-.3-.944-.625-1.582-.977-.638-.351-1.257-.696-1.856-1.035a82.5 82.5 0 00-1.777-.976 65.14 65.14 0 00-1.113-.586 13.99 13.99 0 01-.743-.508 6.015 6.015 0 00-.976-.586 1.983 1.983 0 00-.82-.195c-.391 0-.866.267-1.426.8-.56.534-1.074 1.12-1.543 1.758a15.23 15.23 0 01-1.504 1.758c-.534.534-.97.8-1.309.8-.182 0-.397-.045-.644-.136a6.124 6.124 0 01-.606-.254 11.729 11.729 0 01-.664-.37 15.86 15.86 0 01-.547-.333c-2.578-1.432-4.791-3.08-6.64-4.941-1.85-1.862-3.503-4.082-4.961-6.66a15.86 15.86 0 01-.332-.547c-.17-.287-.293-.508-.371-.664a6.124 6.124 0 01-.254-.606 1.909 1.909 0 01-.137-.644c0-.339.267-.775.8-1.309a15.23 15.23 0 011.759-1.504 13.323 13.323 0 001.758-1.543c.533-.56.8-1.035.8-1.426 0-.26-.065-.533-.195-.82a6.015 6.015 0 00-.586-.976 13.99 13.99 0 01-.508-.743 65.14 65.14 0 00-.586-1.113 82.5 82.5 0 00-.976-1.777c-.339-.6-.684-1.218-1.035-1.856a15.918 15.918 0 00-.977-1.582c-.3-.416-.514-.65-.645-.703-.13-.052-.338-.078-.625-.078-1.25 0-2.565.287-3.945.86-1.198.546-2.24 1.777-3.125 3.69C10.443 16.466 10 18.165 10 19.649c0 .417.033.86.098 1.329.065.468.13.865.195 1.191.065.326.182.755.352 1.289.169.534.299.918.39 1.152a135.63 135.63 0 01.918 2.461c1.563 4.271 4.382 8.444 8.457 12.52 4.076 4.075 8.249 6.894 12.52 8.457a135.63 135.63 0 012.46.918c.235.091.62.221 1.153.39.534.17.964.287 1.289.352.326.065.723.13 1.191.195.47.065.912.098 1.329.098 1.484 0 3.183-.443 5.097-1.328 1.914-.886 3.145-1.927 3.692-3.125.573-1.38.859-2.695.859-3.945zM60 11.25v37.5c0 3.099-1.1 5.749-3.3 7.95-2.201 2.2-4.851 3.3-7.95 3.3h-37.5c-3.099 0-5.749-1.1-7.95-3.3C1.1 54.498 0 51.848 0 48.75v-37.5C0 8.151 1.1 5.501 3.3 3.3 5.502 1.1 8.152 0 11.25 0h37.5c3.099 0 5.749 1.1 7.95 3.3 2.2 2.201 3.3 4.851 3.3 7.95z"/></svg><svg viewBox="0 0 301 201" id="ru" xmlns="http://www.w3.org/2000/svg"><path d="M.5.5h300v100H.5V.5zM.5 100.5h300v100H.5v-100z"/><path d="M.5 67.166h300v66.667H.5V67.166z"/></svg><svg viewBox="0 0 301 201" id="ua" xmlns="http://www.w3.org/2000/svg"><path d="M.5.5h300v200H.5V.5z"/><path d="M.5 100.5h300v100H.5v-100z"/></svg></svg>