<svg width="16" height="16" viewBox="0 0 16 16" fill="none" xmlns="http://www.w3.org/2000/svg">
<path fill-rule="evenodd" clip-rule="evenodd" d="M15 8C15 7.86739 14.9473 7.74022 14.8536 7.64645C14.7598 7.55268 14.6326 7.5 14.5 7.5H2.707L5.854 4.354C5.90049 4.30751 5.93737 4.25232 5.96252 4.19158C5.98768 4.13084 6.00063 4.06574 6.00063 4C6.00063 3.93426 5.98768 3.86916 5.96252 3.80842C5.93737 3.74768 5.90049 3.69249 5.854 3.646C5.80751 3.59951 5.75232 3.56264 5.69158 3.53748C5.63085 3.51232 5.56574 3.49937 5.5 3.49937C5.43426 3.49937 5.36916 3.51232 5.30842 3.53748C5.24768 3.56264 5.19249 3.59951 5.146 3.646L1.146 7.646C1.09944 7.69245 1.0625 7.74762 1.03729 7.80837C1.01208 7.86911 0.999107 7.93423 0.999107 8C0.999107 8.06577 1.01208 8.13089 1.03729 8.19163C1.0625 8.25238 1.09944 8.30755 1.146 8.354L5.146 12.354C5.19249 12.4005 5.24768 12.4374 5.30842 12.4625C5.36916 12.4877 5.43426 12.5006 5.5 12.5006C5.56574 12.5006 5.63085 12.4877 5.69158 12.4625C5.75232 12.4374 5.80751 12.4005 5.854 12.354C5.90049 12.3075 5.93737 12.2523 5.96252 12.1916C5.98768 12.1308 6.00063 12.0657 6.00063 12C6.00063 11.9343 5.98768 11.8692 5.96252 11.8084C5.93737 11.7477 5.90049 11.6925 5.854 11.646L2.707 8.5H14.5C14.6326 8.5 14.7598 8.44732 14.8536 8.35355C14.9473 8.25979 15 8.13261 15 8Z" fill="black"/>
</svg>
