<svg width="100" height="100" viewBox="0 0 301 151" fill="none" xmlns="http://www.w3.org/2000/svg">
<path d="M0.5 0.5H300.343V150.483H0.5V0.5Z" fill="white"/>
<path d="M135.428 90.444V150.483H165.416V90.444H300.344V60.46H165.416V0.5H135.428V60.46H0.5V90.444H135.428Z" fill="#CF142B"/>
<path d="M175.415 49.049V0.5H272.495L175.415 49.049ZM175.415 101.933V150.483H272.495L175.415 101.933ZM125.428 101.933V150.483H28.349L125.428 101.933ZM125.428 49.049V0.5H28.349L125.428 49.049ZM0.500977 14.442V50.493H72.588L0.500977 14.442ZM300.343 14.442V50.493H228.256L300.343 14.442ZM300.343 136.541V100.49H228.256L300.343 136.541ZM0.500977 136.541V100.49H72.588L0.500977 136.541Z" fill="#00247D"/>
<path d="M300.343 0.5H283.689L183.9 50.493H200.554L300.5 0.5H300.343ZM116.943 100.487H100.289L0.5 150.48H17.154L117.1 100.487H116.943ZM83.768 50.532H100.421L0.5 0.5V8.885L83.768 50.532ZM217.023 100.468H200.369L300.29 150.5V142.115L217.023 100.468Z" fill="#CF142B"/>
</svg>
