<svg width="60" height="60" viewBox="0 0 60 60" fill="none" xmlns="http://www.w3.org/2000/svg">
<path d="M50 41.6016C50 41.3151 49.974 41.1068 49.9219 40.9766C49.8698 40.8464 49.6354 40.6315 49.2188 40.332C48.8021 40.0326 48.2747 39.707 47.6367 39.3555C46.9987 39.0039 46.3802 38.6589 45.7812 38.3203C45.1823 37.9818 44.5898 37.6562 44.0039 37.3438C43.418 37.0312 43.0469 36.8359 42.8906 36.7578C42.7604 36.6797 42.513 36.5104 42.1484 36.25C41.7839 35.9896 41.4583 35.7943 41.1719 35.6641C40.8854 35.5339 40.612 35.4688 40.3516 35.4688C39.9609 35.4688 39.4857 35.7357 38.9258 36.2695C38.3659 36.8034 37.8516 37.3893 37.3828 38.0273C36.9141 38.6654 36.4128 39.2513 35.8789 39.7852C35.3451 40.319 34.9089 40.5859 34.5703 40.5859C34.388 40.5859 34.1732 40.5404 33.9258 40.4492C33.6784 40.3581 33.4766 40.2734 33.3203 40.1953C33.1641 40.1172 32.9427 39.9935 32.6562 39.8242C32.3698 39.6549 32.1875 39.5443 32.1094 39.4922C29.5312 38.0599 27.3177 36.4128 25.4688 34.5508C23.6198 32.6888 21.9661 30.4688 20.5078 27.8906C20.4557 27.8125 20.3451 27.6302 20.1758 27.3438C20.0065 27.0573 19.8828 26.8359 19.8047 26.6797C19.7266 26.5234 19.6419 26.3216 19.5508 26.0742C19.4596 25.8268 19.4141 25.612 19.4141 25.4297C19.4141 25.0911 19.681 24.6549 20.2148 24.1211C20.7487 23.5872 21.3346 23.0859 21.9727 22.6172C22.6107 22.1484 23.1966 21.6341 23.7305 21.0742C24.2643 20.5143 24.5312 20.0391 24.5312 19.6484C24.5312 19.388 24.4661 19.1146 24.3359 18.8281C24.2057 18.5417 24.0104 18.2161 23.75 17.8516C23.4896 17.487 23.3203 17.2396 23.2422 17.1094C23.1641 16.9531 22.9688 16.582 22.6562 15.9961C22.3438 15.4102 22.0182 14.8177 21.6797 14.2188C21.3411 13.6198 20.9961 13.0013 20.6445 12.3633C20.293 11.7253 19.9674 11.1979 19.668 10.7812C19.3685 10.3646 19.1536 10.1302 19.0234 10.0781C18.8932 10.026 18.6849 10 18.3984 10C17.1484 10 15.8333 10.2865 14.4531 10.8594C13.2552 11.4062 12.2135 12.6367 11.3281 14.5508C10.4427 16.4648 10 18.1641 10 19.6484C10 20.0651 10.0326 20.5078 10.0977 20.9766C10.1628 21.4453 10.2279 21.8424 10.293 22.168C10.3581 22.4935 10.4753 22.9232 10.6445 23.457C10.8138 23.9909 10.944 24.375 11.0352 24.6094C11.1263 24.8438 11.2891 25.2734 11.5234 25.8984C11.7578 26.5234 11.901 26.9141 11.9531 27.0703C13.5156 31.3411 16.3346 35.5143 20.4102 39.5898C24.4857 43.6654 28.6589 46.4844 32.9297 48.0469C33.0859 48.099 33.4766 48.2422 34.1016 48.4766C34.7266 48.7109 35.1562 48.8737 35.3906 48.9648C35.625 49.056 36.0091 49.1862 36.543 49.3555C37.0768 49.5247 37.5065 49.6419 37.832 49.707C38.1576 49.7721 38.5547 49.8372 39.0234 49.9023C39.4922 49.9674 39.9349 50 40.3516 50C41.8359 50 43.5352 49.5573 45.4492 48.6719C47.3633 47.7865 48.5938 46.7448 49.1406 45.5469C49.7135 44.1667 50 42.8516 50 41.6016ZM60 11.25V48.75C60 51.849 58.8997 54.4987 56.6992 56.6992C54.4987 58.8997 51.849 60 48.75 60H11.25C8.15104 60 5.5013 58.8997 3.30078 56.6992C1.10026 54.4987 0 51.849 0 48.75V11.25C0 8.15104 1.10026 5.5013 3.30078 3.30078C5.5013 1.10026 8.15104 0 11.25 0H48.75C51.849 0 54.4987 1.10026 56.6992 3.30078C58.8997 5.5013 60 8.15104 60 11.25Z" fill="black"/>
</svg>
